<svg width="591" height="591" viewBox="0 0 591 591" fill="none" xmlns="http://www.w3.org/2000/svg">
<path d="M531.782 471.015H492.634V471.311H531.782V471.015Z" fill="#EBEBEB"/>
<path d="M391.502 474.23H381.23V474.526H391.502V474.23Z" fill="#EBEBEB"/>
<path d="M491.452 460.046H468.77V460.342H491.452V460.046Z" fill="#EBEBEB"/>
<path d="M113.058 462.032H62.0078V462.327H113.058V462.032Z" fill="#EBEBEB"/>
<path d="M131.072 462.032H123.59V462.327H131.072V462.032Z" fill="#EBEBEB"/>
<path d="M266.127 467.02H155.397V467.316H266.127V467.02Z" fill="#EBEBEB"/>
<path d="M280.134 399.28H51.9133C50.1233 399.28 48.4066 398.569 47.1409 397.303C45.8751 396.037 45.1641 394.32 45.1641 392.53V71.7001C45.1796 69.9204 45.8976 68.2188 47.1616 66.9659C48.4257 65.7129 50.1335 65.0099 51.9133 65.01H280.134C281.924 65.01 283.641 65.7211 284.906 66.9868C286.172 68.2525 286.883 69.9692 286.883 71.7592V392.53C286.883 394.32 286.172 396.037 284.906 397.303C283.641 398.569 281.924 399.28 280.134 399.28ZM51.9133 65.2464C50.2026 65.2495 48.5629 65.9305 47.3533 67.1401C46.1436 68.3497 45.4627 69.9895 45.4596 71.7001V392.53C45.4627 394.241 46.1436 395.881 47.3533 397.09C48.5629 398.3 50.2026 398.981 51.9133 398.984H280.134C281.845 398.981 283.484 398.3 284.694 397.09C285.903 395.881 286.584 394.241 286.588 392.53V71.7001C286.584 69.9895 285.903 68.3497 284.694 67.1401C283.484 65.9305 281.845 65.2495 280.134 65.2464H51.9133Z" fill="#EBEBEB"/>
<path d="M535.813 399.28H307.569C305.78 399.276 304.065 398.564 302.8 397.299C301.535 396.034 300.822 394.319 300.819 392.53V71.7001C300.838 69.9214 301.557 68.2216 302.82 66.9693C304.084 65.717 305.79 65.013 307.569 65.01H535.813C537.588 65.0162 539.29 65.7219 540.549 66.9742C541.808 68.2265 542.523 69.9245 542.538 71.7001V392.53C542.538 394.316 541.831 396.029 540.57 397.294C539.309 398.56 537.599 399.273 535.813 399.28ZM307.569 65.2464C305.858 65.2495 304.218 65.9305 303.009 67.1401C301.799 68.3497 301.118 69.9895 301.115 71.7001V392.53C301.118 394.241 301.799 395.881 303.009 397.09C304.218 398.3 305.858 398.981 307.569 398.984H535.813C537.523 398.981 539.163 398.3 540.373 397.09C541.582 395.881 542.263 394.241 542.266 392.53V71.7001C542.263 69.9895 541.582 68.3497 540.373 67.1401C539.163 65.9305 537.523 65.2495 535.813 65.2464H307.569Z" fill="#EBEBEB"/>
<path d="M591 451.997H0V452.292H591V451.997Z" fill="#EBEBEB"/>
<path d="M166.355 255.879L170.067 253.929L169.357 258.054L172.36 260.986L168.211 261.588L166.355 265.347L164.499 261.588L160.351 260.986L163.353 258.054L162.644 253.929L166.355 255.879Z" fill="#E0E0E0"/>
<path d="M378.441 167.726C351.917 159.452 331.09 143.412 383.098 121.545C435.106 99.6781 421.513 168.541 462.292 173.411C503.071 178.281 527.515 190.81 478.592 215.219C429.669 239.627 441.229 187.205 378.441 167.726Z" fill="#F5F5F5"/>
<path d="M177.619 97.0067L182.986 94.1818L181.969 100.163L186.307 104.394L180.302 105.269L177.619 110.706L174.936 105.269L168.943 104.394L173.281 100.163L172.253 94.1818L177.619 97.0067Z" fill="#F5F5F5"/>
<path d="M505.742 290.914L516.475 285.276L514.43 297.226L523.106 305.689L511.109 307.438L505.742 318.313L500.376 307.438L488.379 305.689L497.055 297.226L495.01 285.276L505.742 290.914Z" fill="#F5F5F5"/>
<path d="M415.367 95.3283L422.4 91.6287L421.052 99.4535L426.738 104.997L418.889 106.132L415.367 113.259L411.856 106.132L404.008 104.997L409.693 99.4535L408.346 91.6287L415.367 95.3283Z" fill="#F0F0F0"/>
<path d="M77.232 217.819L80.9435 215.869L80.2343 220.006L83.2366 222.925L79.0877 223.528L77.232 227.287L75.3763 223.528L71.2393 222.925L74.2297 220.006L73.5323 215.869L77.232 217.819Z" fill="#F5F5F5"/>
<path d="M123.33 170.019L127.041 168.069L126.332 172.194L129.334 175.113L125.185 175.716L123.33 179.475L121.474 175.716L117.337 175.113L120.327 172.194L119.618 168.069L123.33 170.019Z" fill="#F5F5F5"/>
<path d="M478.591 133.412L482.303 131.462L481.594 135.587L484.596 138.519L480.447 139.11L478.591 142.868L476.736 139.11L472.587 138.519L475.589 135.587L474.88 131.462L478.591 133.412Z" fill="#F5F5F5"/>
<path d="M391.774 155.74L395.485 153.79L394.776 157.927L397.779 160.847L393.63 161.449L391.774 165.208L389.93 161.449L385.781 160.847L388.784 157.927L388.074 153.79L391.774 155.74Z" fill="#FAFAFA"/>
<path d="M395.852 136.025L393.701 137.171L394.115 134.76L392.354 133.058L394.777 132.703L395.852 130.516L396.94 132.703L399.351 133.058L397.602 134.76L398.015 137.171L395.852 136.025Z" fill="#E6E6E6"/>
<path d="M262.298 119.453L260.134 120.599L260.548 118.188L258.799 116.486L261.222 116.132L262.298 113.945L263.385 116.132L265.796 116.486L264.047 118.188L264.461 120.599L262.298 119.453Z" fill="#E6E6E6"/>
<path d="M472.469 204.415L476.181 202.465L475.472 206.602L478.474 209.521L474.325 210.124L472.469 213.883L470.614 210.124L466.477 209.521L469.479 206.602L468.77 202.465L472.469 204.415Z" fill="#FAFAFA"/>
<path d="M433.723 424.031L437.423 422.08L436.714 426.205L439.716 429.137L435.567 429.74L433.723 433.498L431.868 429.74L427.719 429.137L430.721 426.205L430.012 422.08L433.723 424.031Z" fill="#F5F5F5"/>
<path d="M350.298 105.174L354.092 103.177L353.371 107.408L356.444 110.399L352.189 111.025L350.298 114.867L348.395 111.025L344.14 110.399L347.213 107.408L346.492 103.177L350.298 105.174Z" fill="#F0F0F0"/>
<path d="M63.8872 310.452C76.31 300.169 124.039 264.969 127.538 300.133C131.037 335.298 190.929 332.189 165.776 344.931C140.623 357.673 37.3277 332.426 63.8872 310.452Z" fill="#F5F5F5"/>
<path d="M84.2887 309.176L88.0002 307.225L87.291 311.351L90.2933 314.282L86.1445 314.885L84.2887 318.644L82.433 314.885L78.2842 314.282L81.2865 311.351L80.5773 307.225L84.2887 309.176Z" fill="#E0E0E0"/>
<path d="M138.093 330.156L140.516 328.88L140.055 331.586L142.017 333.501L139.311 333.903L138.093 336.362L136.876 333.903L134.169 333.501L136.131 331.586L135.67 328.88L138.093 330.156Z" fill="#FAFAFA"/>
<path d="M498.638 367.165L502.338 365.214L501.629 369.34L504.631 372.271L500.494 372.874L498.638 376.632L496.783 372.874L492.634 372.271L495.636 369.34L494.927 365.214L498.638 367.165Z" fill="#E0E0E0"/>
<path d="M148.436 424.338C147.398 426.276 145.809 427.862 143.869 428.896C141.93 429.93 139.727 430.366 137.54 430.148C135.353 429.931 133.279 429.069 131.582 427.672C129.885 426.276 128.64 424.408 128.004 422.303C127.369 420.199 127.372 417.954 128.013 415.851C128.655 413.749 129.905 411.884 131.606 410.492C133.307 409.101 135.383 408.245 137.571 408.033C139.759 407.821 141.96 408.263 143.897 409.303C145.182 409.992 146.32 410.927 147.244 412.055C148.168 413.184 148.861 414.483 149.282 415.88C149.704 417.276 149.846 418.742 149.701 420.193C149.556 421.645 149.126 423.053 148.436 424.338Z" fill="#F0F0F0"/>
<path d="M149.298 422.281C149.15 422.778 148.968 423.263 148.754 423.735C152.879 426.43 155.385 428.546 155.019 429.232C154.416 430.354 146.355 427.198 137.005 422.14C127.656 417.081 120.564 412.163 121.166 411.041C121.533 410.355 124.712 411.265 129.204 413.215C129.487 412.777 129.795 412.354 130.126 411.951C119.724 406.986 111.888 404.303 111.214 405.686C110.256 407.471 121.545 415.378 136.414 423.345C151.284 431.312 164.132 436.347 165.089 434.551C165.775 433.215 159.191 428.18 149.298 422.281Z" fill="#E0E0E0"/>
<path d="M373.925 311.587L377.637 309.637L376.928 313.774L379.93 316.693L375.781 317.296L373.925 321.055L372.07 317.296L367.933 316.693L370.923 313.774L370.214 309.637L373.925 311.587Z" fill="#EBEBEB"/>
<path d="M480.921 254.733C477.765 248.551 465.472 251.825 452.115 257.097C451.463 257.357 450.754 257.444 450.058 257.348C449.362 257.253 448.703 256.979 448.144 256.553C446.697 255.462 444.986 254.774 443.186 254.56C441.386 254.346 439.562 254.613 437.899 255.334C436.236 256.055 434.793 257.204 433.719 258.664C432.645 260.124 431.978 261.843 431.785 263.645C431.71 264.363 431.447 265.049 431.021 265.632C430.596 266.216 430.023 266.676 429.362 266.967C419.977 271.033 412.814 273.68 411.845 271.257C408.901 263.964 448.12 248.409 448.12 248.409C448.12 248.409 395.261 264.248 403.724 277.037C406.987 281.978 417.908 279.07 430.201 274.011C431.438 273.522 432.76 273.286 434.09 273.316C435.42 273.346 436.73 273.643 437.943 274.189C439.279 274.763 440.722 275.047 442.176 275.02C443.63 274.993 445.061 274.656 446.374 274.032C447.688 273.407 448.853 272.51 449.792 271.4C450.731 270.29 451.422 268.992 451.82 267.593C452.209 266.305 452.871 265.117 453.76 264.107C454.649 263.098 455.745 262.291 456.973 261.742C466.5 257.298 473.722 254.343 474.703 256.494C477.67 262.971 435.201 281.316 435.201 281.316C435.201 281.316 488.415 269.401 480.921 254.733Z" fill="#F0F0F0"/>
<path d="M235.596 492.315C284.66 492.315 324.435 488.229 324.435 483.19C324.435 478.15 284.66 474.065 235.596 474.065C186.531 474.065 146.757 478.15 146.757 483.19C146.757 488.229 186.531 492.315 235.596 492.315Z" fill="#F5F5F5"/>
<path d="M397.778 487.8C422.31 487.8 442.197 484.725 442.197 480.932C442.197 477.139 422.31 474.065 397.778 474.065C373.246 474.065 353.358 477.139 353.358 480.932C353.358 484.725 373.246 487.8 397.778 487.8Z" fill="#F5F5F5"/>
<path d="M350.699 391.455C350.699 391.313 350.616 391.171 350.569 391.029C349.895 389.233 347.342 388.511 347.342 388.511C346.762 389.427 346.432 390.478 346.385 391.561L346.007 391.691L345.628 391.845C344.883 391.059 343.946 390.48 342.91 390.166C342.91 390.166 341.444 392.377 342.118 394.185L342.295 394.587C341.995 395.022 341.801 395.521 341.727 396.044C341.653 396.567 341.702 397.1 341.87 397.601C342.65 399.717 345.794 400.509 348.867 399.362C351.94 398.216 353.796 395.568 353.004 393.452C352.799 392.965 352.484 392.531 352.084 392.185C351.685 391.839 351.211 391.589 350.699 391.455Z" fill="#7E57C2"/>
<path opacity="0.8" d="M350.699 391.455C350.699 391.313 350.616 391.171 350.569 391.029C349.895 389.233 347.342 388.511 347.342 388.511C346.762 389.427 346.432 390.478 346.385 391.561L346.007 391.691L345.628 391.845C344.883 391.059 343.946 390.48 342.91 390.166C342.91 390.166 341.444 392.377 342.118 394.185L342.295 394.587C341.995 395.022 341.801 395.521 341.727 396.044C341.653 396.567 341.702 397.1 341.87 397.601C342.65 399.717 345.794 400.509 348.867 399.362C351.94 398.216 353.796 395.568 353.004 393.452C352.799 392.965 352.484 392.531 352.084 392.185C351.685 391.839 351.211 391.589 350.699 391.455Z" fill="white"/>
<path d="M355.38 336.87C341.35 337.745 324.719 435.744 309.424 429.586C302.947 426.986 297.167 404.539 292.663 379.552L287.403 381.502C290.536 397.294 305.5 465.058 324.199 423.499C345.262 376.668 351.48 304.826 366.905 361.846L368.607 361.03C368.607 361.03 364.233 336.314 355.38 336.87Z" fill="#7E57C2"/>
<path opacity="0.3" d="M355.38 336.87C341.35 337.745 324.719 435.744 309.424 429.586C302.947 426.986 297.167 404.539 292.663 379.552L287.403 381.502C290.536 397.294 305.5 465.058 324.199 423.499C345.262 376.668 351.48 304.826 366.905 361.846L368.607 361.03C368.607 361.03 364.233 336.314 355.38 336.87Z" fill="black"/>
<path d="M376.101 351.787C376.101 351.787 378.323 335.416 396.715 320.523C415.107 305.63 427.577 315.724 427.577 315.724L432.482 318.939L432.73 332.698L425.756 344.837L408.405 358.607L390.486 363.666L381.786 359.753L376.101 351.787Z" fill="#7E57C2"/>
<path opacity="0.5" d="M376.101 351.787C376.101 351.787 378.323 335.416 396.715 320.523C415.107 305.63 427.577 315.724 427.577 315.724L432.482 318.939L432.73 332.698L425.756 344.837L408.405 358.607L390.486 363.666L381.786 359.753L376.101 351.787Z" fill="white"/>
<path d="M335.44 363.276L363.429 375.096L382.412 362.283L354.044 356.728C350.807 356.095 347.477 356.107 344.244 356.762C341.011 357.417 337.939 358.703 335.203 360.545C334.962 360.695 334.767 360.909 334.64 361.163C334.513 361.416 334.459 361.7 334.483 361.983C334.508 362.266 334.61 362.536 334.779 362.765C334.948 362.993 335.176 363.17 335.44 363.276Z" fill="#263238"/>
<path d="M370.983 415.969L370.475 385.568L389.458 372.767L383.985 401.135C383.355 404.378 382.091 407.464 380.266 410.216C378.44 412.969 376.089 415.334 373.347 417.175C373.121 417.32 372.861 417.403 372.593 417.417C372.325 417.43 372.058 417.373 371.819 417.251C371.58 417.129 371.377 416.946 371.23 416.722C371.083 416.497 370.998 416.237 370.983 415.969Z" fill="#263238"/>
<g opacity="0.5">
<path d="M335.44 363.276L363.429 375.096L382.412 362.283L354.044 356.728C350.807 356.095 347.477 356.107 344.244 356.762C341.011 357.417 337.939 358.703 335.203 360.545C334.962 360.695 334.767 360.909 334.64 361.163C334.513 361.416 334.459 361.7 334.483 361.983C334.508 362.266 334.61 362.536 334.779 362.765C334.948 362.993 335.176 363.17 335.44 363.276Z" fill="white"/>
<path d="M370.983 415.969L370.475 385.568L389.458 372.767L383.985 401.135C383.355 404.378 382.091 407.464 380.266 410.216C378.44 412.969 376.089 415.334 373.347 417.175C373.121 417.32 372.861 417.403 372.593 417.417C372.325 417.43 372.058 417.373 371.819 417.251C371.58 417.129 371.377 416.946 371.23 416.722C371.083 416.497 370.998 416.237 370.983 415.969Z" fill="white"/>
</g>
<path d="M463.77 311.93C452.999 310.595 442.07 311.439 431.631 314.412L433.747 325.688L432.73 332.674L421.797 348.04L410.592 355.605L394.788 361.869L381.786 359.754L373.051 354.6C366.917 360.309 360.829 366.325 355.321 372.2C357.484 375.935 359.837 379.694 362.413 383.429C364.99 387.164 367.531 390.746 370.191 394.15C394.457 384.883 422.423 370.025 433.664 362.437C449.893 351.525 461.617 335.102 466.666 316.209C466.789 315.736 466.81 315.242 466.727 314.76C466.644 314.278 466.46 313.819 466.186 313.414C465.912 313.009 465.554 312.667 465.138 312.412C464.721 312.156 464.255 311.991 463.77 311.93Z" fill="#263238"/>
<path opacity="0.6" d="M463.77 311.93C452.999 310.595 442.07 311.439 431.631 314.412L433.747 325.688L432.73 332.674L421.797 348.04L410.592 355.605L394.788 361.869L381.786 359.754L373.051 354.6C366.917 360.309 360.829 366.325 355.321 372.2C357.484 375.935 359.837 379.694 362.413 383.429C364.99 387.164 367.531 390.746 370.191 394.15C394.457 384.883 422.423 370.025 433.664 362.437C449.893 351.525 461.617 335.102 466.666 316.209C466.789 315.736 466.81 315.242 466.727 314.76C466.644 314.278 466.46 313.819 466.186 313.414C465.912 313.009 465.554 312.667 465.138 312.412C464.721 312.156 464.255 311.991 463.77 311.93Z" fill="white"/>
<path d="M362.401 383.429C360.037 379.978 357.91 376.526 355.877 373.075C353.927 375.037 352.012 377.011 350.191 378.985C351.917 381.948 353.781 384.918 355.782 387.897C357.784 390.876 359.844 393.716 361.964 396.419C364.458 395.462 366.999 394.433 369.553 393.358C367.118 390.178 364.718 386.869 362.401 383.429Z" fill="#263238"/>
<path opacity="0.1" d="M465.566 314.601C455.484 325.133 441.111 337.059 424.196 348.477C413.204 355.888 387.554 372.212 366.101 385.013C365.907 385.13 365.739 385.285 365.607 385.468C365.475 385.652 365.381 385.86 365.331 386.081C365.281 386.302 365.277 386.531 365.318 386.753C365.359 386.976 365.444 387.188 365.569 387.377L367.484 390.202C367.702 390.534 368.032 390.777 368.413 390.887C368.794 390.998 369.203 390.968 369.564 390.805C392.72 380.332 419.433 365.214 430.473 357.709C446.926 346.621 459.006 332.024 465.732 316.788C465.889 316.424 465.951 316.026 465.914 315.632C465.877 315.237 465.741 314.858 465.519 314.53L465.566 314.601Z" fill="black"/>
<g opacity="0.4">
<path d="M377.117 356.964C370.652 362.484 364.115 368.288 358.205 373.937C357.87 374.243 357.669 374.67 357.648 375.123C357.627 375.576 357.787 376.019 358.093 376.355C358.398 376.69 358.825 376.89 359.278 376.911C359.731 376.933 360.175 376.773 360.51 376.467C367.094 370.852 374.28 365.013 381.337 359.458L377.117 356.964Z" fill="white"/>
<path d="M432.482 318.939L433.381 323.726C443.228 318.754 453.706 315.143 464.526 312.994L464.16 312.462C453.3 312.721 442.573 314.915 432.482 318.939Z" fill="white"/>
</g>
<path d="M433.511 313.939C431.517 314.459 429.547 315.054 427.601 315.724C430.237 321.835 430.958 327.201 429.799 331.965C428.145 338.785 422.495 345.132 412.542 351.373C402.59 357.614 394.41 359.931 387.555 358.465C383.183 357.381 379.216 355.063 376.125 351.787C374.612 353.166 373.103 354.565 371.598 355.983C383.583 367.933 397.602 368.004 415.816 356.598C434.976 344.588 440.65 331.161 433.511 313.939Z" fill="#263238"/>
<path opacity="0.5" d="M433.511 313.939C431.517 314.459 429.547 315.054 427.601 315.724C430.237 321.835 430.958 327.201 429.799 331.965C428.145 338.785 422.495 345.132 412.542 351.373C402.59 357.614 394.41 359.931 387.555 358.465C383.183 357.381 379.216 355.063 376.125 351.787C374.612 353.166 373.103 354.565 371.598 355.983C383.583 367.933 397.602 368.004 415.816 356.598C434.976 344.588 440.65 331.161 433.511 313.939Z" fill="white"/>
<g opacity="0.2">
<path d="M386.088 359.907C386.26 360.178 386.348 360.494 386.34 360.815C386.332 361.136 386.229 361.447 386.043 361.709C385.858 361.971 385.599 362.172 385.299 362.287C385 362.402 384.673 362.425 384.36 362.353C384.047 362.281 383.763 362.119 383.542 361.885C383.322 361.651 383.177 361.358 383.124 361.041C383.071 360.725 383.113 360.4 383.245 360.107C383.378 359.815 383.594 359.568 383.866 359.399C384.229 359.174 384.666 359.101 385.082 359.196C385.498 359.291 385.86 359.547 386.088 359.907Z" fill="black"/>
<path d="M403.216 359.423C403.386 359.694 403.473 360.009 403.464 360.329C403.455 360.649 403.351 360.96 403.166 361.221C402.981 361.482 402.722 361.683 402.423 361.797C402.124 361.911 401.798 361.935 401.486 361.863C401.173 361.792 400.889 361.63 400.669 361.398C400.449 361.165 400.303 360.873 400.249 360.557C400.195 360.242 400.236 359.917 400.366 359.625C400.497 359.332 400.711 359.085 400.982 358.914C401.162 358.801 401.362 358.724 401.572 358.688C401.782 358.652 401.997 358.658 402.204 358.706C402.412 358.753 402.608 358.84 402.781 358.963C402.955 359.086 403.103 359.242 403.216 359.423Z" fill="black"/>
<path d="M419.374 350.463C419.542 350.732 419.626 351.046 419.617 351.363C419.607 351.68 419.503 351.988 419.319 352.247C419.135 352.505 418.878 352.703 418.581 352.816C418.285 352.929 417.961 352.952 417.651 352.881C417.342 352.81 417.06 352.649 416.842 352.419C416.624 352.188 416.479 351.898 416.425 351.585C416.372 351.272 416.412 350.95 416.542 350.66C416.671 350.37 416.883 350.124 417.152 349.955C417.331 349.842 417.53 349.765 417.739 349.729C417.948 349.694 418.162 349.7 418.368 349.747C418.575 349.794 418.77 349.882 418.942 350.005C419.115 350.128 419.262 350.283 419.374 350.463Z" fill="black"/>
<path d="M431.43 338.478C431.602 338.749 431.69 339.065 431.682 339.385C431.674 339.706 431.57 340.017 431.385 340.279C431.2 340.541 430.941 340.743 430.641 340.857C430.342 340.972 430.015 340.995 429.702 340.923C429.389 340.852 429.104 340.689 428.884 340.455C428.664 340.222 428.518 339.928 428.465 339.612C428.413 339.295 428.455 338.97 428.587 338.678C428.719 338.385 428.936 338.139 429.208 337.969C429.387 337.856 429.587 337.78 429.796 337.744C430.005 337.708 430.218 337.714 430.425 337.761C430.631 337.809 430.826 337.896 430.999 338.019C431.172 338.142 431.318 338.298 431.43 338.478Z" fill="black"/>
<path d="M434.148 321.303C434.319 321.574 434.405 321.89 434.396 322.21C434.387 322.53 434.284 322.84 434.099 323.101C433.913 323.363 433.655 323.563 433.356 323.678C433.057 323.792 432.731 323.815 432.418 323.744C432.106 323.673 431.822 323.511 431.602 323.278C431.382 323.046 431.235 322.753 431.181 322.438C431.127 322.122 431.168 321.798 431.299 321.505C431.429 321.213 431.644 320.966 431.914 320.795C432.094 320.68 432.295 320.602 432.505 320.565C432.715 320.528 432.93 320.534 433.138 320.581C433.346 320.628 433.542 320.717 433.716 320.841C433.889 320.965 434.036 321.122 434.148 321.303Z" fill="black"/>
</g>
<path d="M436.902 313.135C441.545 323.266 447.818 332.565 455.472 340.664C460.534 333.192 464.314 324.926 466.653 316.209C466.776 315.736 466.798 315.243 466.716 314.762C466.634 314.281 466.45 313.823 466.177 313.418C465.904 313.013 465.549 312.671 465.133 312.415C464.718 312.158 464.253 311.993 463.769 311.93C454.809 310.837 445.729 311.244 436.902 313.135Z" fill="#7E57C2"/>
<path d="M380.131 371.467C381.42 373.394 375.403 379.741 373.477 381.018C371.55 382.294 349.305 395.06 348.005 393.133C346.704 391.207 366.846 375.403 368.772 374.056C370.699 372.708 378.831 369.541 380.131 371.467Z" fill="#263238"/>
<path opacity="0.5" d="M380.131 371.467C381.42 373.394 375.403 379.741 373.477 381.018C371.55 382.294 349.305 395.06 348.005 393.133C346.704 391.207 366.846 375.403 368.772 374.056C370.699 372.708 378.831 369.541 380.131 371.467Z" fill="white"/>
<path opacity="0.5" d="M408.441 317.733C404.687 318.985 401.205 320.939 398.181 323.49C383.016 335.783 381.184 349.293 381.184 349.293L382.531 351.172C383.973 346.279 388.228 335.936 400.155 326.279C403.021 323.884 406.254 321.965 409.729 320.594L408.441 317.733Z" fill="white"/>
<path opacity="0.5" d="M414.681 316.776L415.319 319.14C418.041 318.797 420.805 319.055 423.416 319.897L423.25 319.199C420.68 317.598 417.709 316.757 414.681 316.776Z" fill="white"/>
<path d="M162.218 272.605H161.78C159.893 272.602 158.046 273.157 156.473 274.2H156.402C140.583 284.486 128.942 300.068 123.568 318.155C118.193 336.243 119.435 355.653 127.071 372.908C134.707 390.163 148.238 404.135 165.239 412.32C182.241 420.506 201.601 422.369 219.852 417.577C220.581 417.393 221.245 417.008 221.767 416.466L221.838 416.395C222.369 415.848 222.736 415.163 222.894 414.417C223.053 413.671 222.998 412.896 222.734 412.18C222.471 411.464 222.011 410.838 221.407 410.373C220.802 409.908 220.079 409.623 219.32 409.551C205.988 408.371 193.236 403.553 182.453 395.625C171.671 387.696 163.271 376.96 158.17 364.586C153.069 352.212 151.462 338.676 153.524 325.452C155.586 312.227 161.239 299.823 169.865 289.59C171.11 288.098 171.911 286.286 172.175 284.361C172.439 282.436 172.156 280.475 171.358 278.704C170.56 276.932 169.28 275.42 167.663 274.342C166.047 273.263 164.16 272.661 162.218 272.605Z" fill="#7E57C2"/>
<path opacity="0.5" d="M221.838 416.395L221.767 416.466C221.244 417.001 220.587 417.385 219.864 417.577C204.732 421.529 188.77 420.929 173.978 415.851C171.025 414.845 168.136 413.661 165.326 412.305C152.279 406.023 141.198 396.293 133.282 384.168C125.365 372.043 120.914 357.985 120.41 343.513L120.517 335.983C121.264 323.603 124.899 311.569 131.13 300.845C137.362 290.121 146.016 281.004 156.402 274.224H156.473C158.05 273.179 159.9 272.624 161.792 272.628H162.229C164.168 272.686 166.052 273.288 167.665 274.365C169.279 275.442 170.557 276.952 171.353 278.721C172.149 280.49 172.432 282.447 172.169 284.369C171.906 286.291 171.107 288.1 169.865 289.59C161.058 300.067 155.364 312.802 153.43 326.351C151.495 339.9 153.397 353.72 158.92 366.243C159.582 367.756 160.314 369.257 161.095 370.746C162.151 372.732 163.305 374.702 164.558 376.656C171.948 388.042 182.382 397.128 194.675 402.885C196.188 403.606 197.713 404.256 199.261 404.859C205.703 407.375 212.468 408.966 219.355 409.587C220.104 409.669 220.816 409.959 221.408 410.425C222.001 410.89 222.452 411.512 222.71 412.22C222.969 412.928 223.024 413.694 222.869 414.432C222.715 415.17 222.358 415.85 221.838 416.395Z" fill="white"/>
<path opacity="0.1" d="M222.701 412.116C222.441 411.41 221.985 410.794 221.386 410.339C220.787 409.885 220.07 409.611 219.32 409.551C205.989 408.371 193.237 403.554 182.454 395.625C171.671 387.696 163.272 376.96 158.171 364.586C153.069 352.212 151.462 338.676 153.525 325.452C155.587 312.227 161.239 299.823 169.866 289.59C171.064 288.18 171.856 286.47 172.158 284.644C172.46 282.818 172.26 280.945 171.579 279.224C170.286 279.288 169.033 279.696 167.951 280.406H167.892C137.928 299.933 131.545 343.229 153.625 377.105C169.996 402.246 197.394 415.095 222.701 412.116Z" fill="black"/>
<path d="M223.268 408.972C221.14 407.01 219.402 408.216 218.374 409.457L219.32 409.575C220.079 409.646 220.802 409.931 221.406 410.396C222.01 410.862 222.471 411.488 222.734 412.204C222.997 412.919 223.053 413.695 222.894 414.441C222.735 415.186 222.369 415.872 221.837 416.419L221.766 416.489C221.486 416.773 221.168 417.015 220.821 417.211C224.686 420.851 226.873 412.258 223.268 408.972Z" fill="#7E57C2"/>
<g opacity="0.2">
<path d="M223.268 408.972C221.14 407.01 219.402 408.216 218.374 409.457L219.32 409.575C220.079 409.646 220.802 409.931 221.406 410.396C222.01 410.862 222.471 411.488 222.734 412.204C222.997 412.919 223.053 413.695 222.894 414.441C222.735 415.186 222.369 415.872 221.837 416.419L221.766 416.489C221.486 416.773 221.168 417.015 220.821 417.211C224.686 420.851 226.873 412.258 223.268 408.972Z" fill="white"/>
</g>
<path d="M249.059 299.318C244.579 292.58 239.792 290.134 241.884 266.896C243.976 243.657 219.178 238.658 211.022 246.482C202.866 254.307 209.58 268.586 225.667 270.56C225.667 270.56 211.589 338.607 245.17 323.75C250.347 321.504 255.962 309.684 249.059 299.318Z" fill="#7E57C2"/>
<path opacity="0.5" d="M249.059 299.318C244.579 292.58 239.792 290.134 241.884 266.896C243.976 243.657 219.178 238.658 211.022 246.482C202.866 254.307 209.58 268.586 225.667 270.56C225.667 270.56 211.589 338.607 245.17 323.75C250.347 321.504 255.962 309.684 249.059 299.318Z" fill="white"/>
<path d="M225.407 267.723C221.459 267.274 207.784 260.714 217.973 253.693C228.161 246.672 241.53 269.496 225.407 267.723Z" fill="#7E57C2"/>
<path d="M225.313 273.172C232.582 273.621 239.26 268.988 243.043 263.172C243.988 261.742 241.683 260.406 240.75 261.825C237.405 266.896 231.577 270.903 225.254 270.512C223.54 270.406 223.552 273.066 225.254 273.172H225.313Z" fill="#7E57C2"/>
<g opacity="0.2">
<path d="M225.407 267.723C221.459 267.274 207.784 260.714 217.973 253.693C228.161 246.672 241.53 269.496 225.407 267.723Z" fill="white"/>
<path d="M225.313 273.172C232.582 273.621 239.26 268.988 243.043 263.172C243.988 261.742 241.683 260.406 240.75 261.825C237.405 266.896 231.577 270.903 225.254 270.513C223.54 270.406 223.552 273.066 225.254 273.172H225.313Z" fill="white"/>
</g>
<path opacity="0.1" d="M245.17 323.762C250.347 321.48 255.962 309.708 249.059 299.318C247.983 297.699 246.896 296.339 245.879 294.874C240.989 304.461 234.93 313.405 227.842 321.504C231.234 325.96 236.671 327.52 245.17 323.762Z" fill="black"/>
<path d="M226.648 381.396C229.544 372.921 230.643 322.438 200.1 357.378C200.1 357.378 202.831 312.911 182.914 324.518C160.941 337.331 182.122 346.846 178.316 372.117C174.51 397.388 197.784 379.422 197.784 379.422C197.784 379.422 212.039 424.184 226.648 381.396Z" fill="#7E57C2"/>
<path opacity="0.5" d="M226.648 381.396C229.544 372.921 230.643 322.438 200.1 357.378C200.1 357.378 202.831 312.911 182.914 324.518C160.941 337.331 182.122 346.846 178.316 372.117C174.51 397.388 197.784 379.422 197.784 379.422C197.784 379.422 212.039 424.184 226.648 381.396Z" fill="white"/>
<path d="M178.481 327.544C164.227 338.95 181.838 348.82 178.34 372.117C177.72 375.107 177.72 378.193 178.34 381.183C178.706 381.715 189.852 397.613 193.966 356.964C198.044 317.095 179.77 326.799 178.481 327.544Z" fill="#7E57C2"/>
<path opacity="0.2" d="M178.481 327.544C164.227 338.95 181.838 348.82 178.34 372.117C177.72 375.107 177.72 378.193 178.34 381.183C178.706 381.715 189.852 397.613 193.966 356.964C198.044 317.095 179.77 326.799 178.481 327.544Z" fill="white"/>
<g opacity="0.5">
<path d="M177.158 337.792L186.614 330.7C187.524 330.014 186.614 328.478 185.727 329.163L176.271 336.255C175.361 336.929 176.271 338.477 177.158 337.792Z" fill="white"/>
<path d="M178.482 345.38L190.077 337.851C191.023 337.236 190.077 335.7 189.179 336.326L177.583 343.856C176.626 344.47 177.512 346.007 178.482 345.38Z" fill="white"/>
<path d="M180.207 353.205L191.803 345.676C192.76 345.049 191.874 343.513 190.904 344.139L179.309 351.669C178.363 352.295 179.309 353.832 180.207 353.205Z" fill="white"/>
<path d="M181.449 361.692L191.07 355.451C192.028 354.825 191.141 353.288 190.184 353.914L180.562 360.167C179.605 360.782 180.491 362.318 181.449 361.692Z" fill="white"/>
<path d="M181.495 369.718L189.899 364.257C190.845 363.642 189.958 362.106 189.001 362.732L180.597 368.181C179.651 368.808 180.597 370.344 181.495 369.718Z" fill="white"/>
<path d="M180.928 378.051L189.332 372.602C190.29 371.975 189.332 370.439 188.434 371.065L180.042 376.526C179.084 377.141 179.971 378.677 180.928 378.051Z" fill="white"/>
</g>
<path d="M200.053 355.439C200.349 363.961 198.02 372.708 195.325 380.687C194.77 382.306 197.335 383.051 197.89 381.396C200.68 373.216 203.044 364.174 202.736 355.392C202.677 353.678 200.018 353.666 200.077 355.392L200.053 355.439Z" fill="#7E57C2"/>
<g opacity="0.2">
<path d="M200.053 355.439C200.349 363.961 198.02 372.708 195.325 380.687C194.77 382.306 197.335 383.051 197.89 381.396C200.68 373.216 203.044 364.174 202.736 355.392C202.677 353.678 200.018 353.666 200.077 355.392L200.053 355.439Z" fill="white"/>
</g>
<path opacity="0.1" d="M201.885 389.197C207.169 399.362 216.826 410.154 226.648 381.396C228.93 374.718 230.088 341.952 215.526 345.463C213.901 347.655 212.394 349.931 211.01 352.283C207.051 359.151 201.566 374.812 201.885 389.197Z" fill="black"/>
<path d="M308.289 314.483C308.289 314.483 336.657 384.15 264.555 414.173C201.909 440.271 204.45 373.465 212.547 356.255C222.169 335.794 251.943 307.793 252.345 280.997L308.289 314.483Z" fill="#7E57C2"/>
<path opacity="0.7" d="M308.289 314.483C308.289 314.483 336.657 384.15 264.555 414.173C201.909 440.271 204.45 373.465 212.547 356.255C222.169 335.794 251.943 307.793 252.345 280.997L308.289 314.483Z" fill="white"/>
<path d="M366.988 257.747C366.988 272.745 361.505 287.225 351.571 298.461C341.637 309.697 327.938 316.913 313.053 318.75C310.559 319.059 308.048 319.213 305.535 319.211C293.379 319.211 281.495 315.606 271.388 308.852C261.28 302.099 253.402 292.499 248.75 281.268C244.098 270.037 242.881 257.679 245.252 245.756C247.624 233.833 253.478 222.881 262.074 214.285C270.67 205.689 281.621 199.835 293.544 197.464C305.467 195.092 317.825 196.309 329.057 200.962C340.288 205.614 349.887 213.492 356.641 223.599C363.395 233.707 366.999 245.59 366.999 257.747H366.988Z" fill="#7E57C2"/>
<path opacity="0.3" d="M366.988 257.747C366.988 272.745 361.505 287.225 351.571 298.461C341.637 309.697 327.938 316.913 313.053 318.75C310.559 319.059 308.048 319.213 305.535 319.211C293.379 319.211 281.495 315.606 271.388 308.852C261.28 302.099 253.402 292.499 248.75 281.268C244.098 270.037 242.881 257.679 245.252 245.756C247.624 233.833 253.478 222.881 262.074 214.285C270.67 205.689 281.621 199.835 293.544 197.464C305.467 195.092 317.825 196.309 329.057 200.962C340.288 205.614 349.887 213.492 356.641 223.599C363.395 233.707 366.999 245.59 366.999 257.747H366.988Z" fill="white"/>
<path d="M312.344 312.982C325.82 311.318 338.223 304.783 347.217 294.61C356.21 284.436 361.174 271.326 361.172 257.747C361.172 257.345 361.172 256.931 361.172 256.565C361.09 252.425 359.409 248.478 356.48 245.552C353.551 242.625 349.603 240.947 345.463 240.868H344.53C329.702 240.868 315.481 246.758 304.996 257.243C294.511 267.728 288.621 281.949 288.621 296.777V297.722C288.706 301.86 290.386 305.805 293.311 308.732C296.237 311.66 300.18 313.343 304.318 313.431H305.5C307.788 313.42 310.074 313.27 312.344 312.982Z" fill="#7E57C2"/>
<path opacity="0.3" d="M312.344 312.982C325.82 311.318 338.223 304.783 347.217 294.61C356.21 284.436 361.174 271.326 361.172 257.747C361.172 257.345 361.172 256.931 361.172 256.565C361.09 252.425 359.409 248.478 356.48 245.552C353.551 242.625 349.603 240.947 345.463 240.868H344.53C329.702 240.868 315.481 246.758 304.996 257.243C294.511 267.728 288.621 281.949 288.621 296.777V297.722C288.706 301.86 290.386 305.805 293.311 308.732C296.237 311.66 300.18 313.343 304.318 313.431H305.5C307.788 313.42 310.074 313.27 312.344 312.982Z" fill="white"/>
<path d="M310.606 321.693C309.949 319.249 309.16 316.842 308.242 314.483L252.298 280.997C252.235 284.049 251.839 287.085 251.116 290.051L260.088 302.923L272.286 313.348L288.751 319.258L305.5 322.627L310.606 321.693Z" fill="#263238"/>
<path opacity="0.5" d="M310.606 321.693C309.949 319.249 309.16 316.842 308.242 314.483L252.298 280.997C252.235 284.049 251.839 287.085 251.116 290.051L260.088 302.923L272.286 313.348L288.751 319.258L305.5 322.627L310.606 321.693Z" fill="white"/>
<path d="M298.124 232.05C297.616 245.265 291.245 256.447 283.94 257.038C276.635 257.629 271.056 247.393 271.564 234.178C272.073 220.963 285.748 209.19 285.748 209.19C285.748 209.19 298.632 218.847 298.124 232.05Z" fill="#263238"/>
<path opacity="0.6" d="M298.124 232.05C297.616 245.265 291.245 256.447 283.94 257.038C276.635 257.629 271.056 247.393 271.564 234.178C272.073 220.963 285.748 209.19 285.748 209.19C285.748 209.19 298.632 218.847 298.124 232.05Z" fill="white"/>
<path opacity="0.2" d="M290.429 230.372C290.133 238.078 286.422 244.556 282.155 244.958C277.888 245.36 274.625 239.331 274.921 231.613C275.216 223.894 283.195 217.027 283.195 217.027C283.195 217.027 290.772 222.653 290.429 230.372Z" fill="black"/>
<path d="M328.3 246.66C318.678 255.548 314.341 267.699 318.619 273.846C322.898 279.992 334.151 277.687 343.772 268.81C353.394 259.934 353.465 241.624 353.465 241.624C353.465 241.624 337.921 237.783 328.3 246.66Z" fill="#7E57C2"/>
<path opacity="0.2" d="M328.3 246.66C318.678 255.548 314.341 267.699 318.619 273.846C322.898 279.992 334.151 277.687 343.772 268.81C353.394 259.934 353.465 241.624 353.465 241.624C353.465 241.624 337.921 237.783 328.3 246.66Z" fill="black"/>
<path opacity="0.2" d="M331.172 249.095C325.558 254.284 323.028 261.376 325.522 264.933C328.016 268.491 334.6 267.191 340.214 262.002C345.829 256.813 345.864 246.151 345.864 246.151C345.864 246.151 336.798 243.906 331.172 249.095Z" fill="black"/>
<path d="M335.191 302.474L336.22 303.266C336.964 303.833 338.064 303.077 338.052 302.084C337.793 298.962 337.729 295.828 337.863 292.699C340.853 271.245 336.562 242.877 315.842 233.031C295.122 223.185 270.997 238.067 256.742 254.189C254.474 256.309 252.074 258.283 249.555 260.099C248.752 260.761 248.894 262.108 249.804 262.321L251.057 262.629L246.128 266.175C245.864 266.373 245.676 266.656 245.594 266.976C245.512 267.296 245.542 267.635 245.678 267.936L249.449 275.252L249.13 275.181C248.877 275.17 248.626 275.229 248.406 275.352C248.185 275.476 248.003 275.658 247.88 275.879C247.757 276.1 247.699 276.351 247.711 276.604C247.723 276.856 247.805 277.101 247.948 277.309C249.793 279.386 251.522 281.564 253.125 283.834C259.618 294.907 269.292 303.77 280.89 309.27C292.387 314.775 305.293 316.631 317.875 314.589C320.628 314.379 323.39 314.328 326.149 314.436C326.414 314.416 326.668 314.319 326.879 314.158C327.09 313.997 327.25 313.777 327.339 313.527C327.428 313.277 327.442 313.006 327.38 312.747C327.317 312.489 327.181 312.254 326.988 312.072L326.716 311.859L334.659 310.109C334.974 310.018 335.248 309.822 335.435 309.553C335.622 309.284 335.712 308.959 335.688 308.632L335.191 302.474Z" fill="#263238"/>
<path opacity="0.8" d="M335.191 302.474L336.22 303.266C336.964 303.833 338.064 303.077 338.052 302.084C337.793 298.962 337.729 295.828 337.863 292.699C340.853 271.245 336.562 242.877 315.842 233.031C295.122 223.185 270.997 238.067 256.742 254.189C254.474 256.309 252.074 258.283 249.555 260.099C248.752 260.761 248.894 262.108 249.804 262.321L251.057 262.629L246.128 266.175C245.864 266.373 245.676 266.656 245.594 266.976C245.512 267.296 245.542 267.635 245.678 267.936L249.449 275.252L249.13 275.181C248.877 275.17 248.626 275.229 248.406 275.352C248.185 275.476 248.003 275.658 247.88 275.879C247.757 276.1 247.699 276.351 247.711 276.604C247.723 276.856 247.805 277.101 247.948 277.309C249.793 279.386 251.522 281.564 253.125 283.834C259.618 294.907 269.292 303.77 280.89 309.27C292.387 314.775 305.293 316.631 317.875 314.589C320.628 314.379 323.39 314.328 326.149 314.436C326.414 314.416 326.668 314.319 326.879 314.158C327.09 313.997 327.25 313.777 327.339 313.527C327.428 313.277 327.442 313.006 327.38 312.747C327.317 312.489 327.181 312.254 326.988 312.072L326.716 311.859L334.659 310.109C334.974 310.018 335.248 309.822 335.435 309.553C335.622 309.284 335.712 308.959 335.688 308.632L335.191 302.474Z" fill="white"/>
<path d="M315.842 284.46C338.643 284.011 338.064 303.077 338.052 302.025C337.793 298.903 337.73 295.769 337.863 292.64C339.979 277.463 338.442 258.846 330.038 245.761C319.294 243.043 304.542 245.667 297.368 272.179C295.122 280.441 306.02 284.661 315.842 284.46Z" fill="#7E57C2"/>
<path d="M284.862 277.77C284.862 277.77 282.155 273.042 283.183 271.706C283.928 270.749 286.398 271.931 287.344 272.38C288.29 272.829 290.76 273.988 290.512 275.181C290.181 276.86 284.862 277.77 284.862 277.77Z" fill="#7E57C2"/>
<path opacity="0.3" d="M284.862 277.77C284.862 277.77 282.155 273.042 283.183 271.706C283.928 270.749 286.398 271.931 287.344 272.38C288.29 272.829 290.76 273.988 290.512 275.181C290.181 276.86 284.862 277.77 284.862 277.77Z" fill="black"/>
<path d="M289.27 282.687C288.913 282.872 288.519 282.974 288.116 282.985C287.714 282.997 287.315 282.917 286.948 282.752C286.58 282.587 286.255 282.342 285.996 282.034C285.738 281.726 285.552 281.363 285.453 280.973C285.386 280.75 285.236 280.561 285.033 280.446C284.83 280.331 284.591 280.3 284.365 280.359C284.008 280.544 283.613 280.646 283.211 280.657C282.809 280.668 282.409 280.588 282.042 280.424C281.675 280.259 281.35 280.013 281.091 279.705C280.832 279.397 280.646 279.035 280.547 278.645C280.181 277.569 278.467 278.03 278.845 279.117C279.141 280.223 279.855 281.171 280.836 281.76C281.818 282.349 282.99 282.533 284.105 282.273C284.588 283.287 285.445 284.075 286.496 284.472C287.547 284.868 288.711 284.843 289.743 284.401C290.772 283.987 290.334 282.273 289.27 282.687Z" fill="#263238"/>
<path d="M280.347 260.808C278.538 264.744 275.619 267.238 273.846 266.399C272.073 265.56 272.085 261.671 273.846 257.735C275.607 253.799 278.574 251.305 280.335 252.144C282.096 252.983 282.143 256.872 280.347 260.808Z" fill="#263238"/>
<path d="M279.07 256.955C278.361 258.492 277.215 259.484 276.517 259.142C275.82 258.799 275.82 257.298 276.517 255.749C277.215 254.201 278.373 253.22 279.07 253.551C279.768 253.882 279.78 255.407 279.07 256.955Z" fill="white"/>
<path d="M312.355 276.588C310.558 280.524 307.627 283.03 305.866 282.179C304.105 281.328 304.105 277.451 305.866 273.515C307.627 269.579 310.594 267.085 312.367 267.924C314.14 268.763 314.163 272.699 312.355 276.588Z" fill="#263238"/>
<path d="M311.079 272.782C310.37 274.319 309.235 275.311 308.538 274.969C307.84 274.626 307.84 273.125 308.538 271.576C309.235 270.028 310.393 269.047 311.091 269.378C311.788 269.709 311.788 271.234 311.079 272.782Z" fill="white"/>
<path d="M269.496 270.56C265.54 264.517 260.061 259.624 253.61 256.376C253.102 256.128 252.653 256.896 253.161 257.144C259.486 260.321 264.86 265.112 268.74 271.033C269.047 271.505 269.815 271.033 269.496 270.583V270.56Z" fill="#263238"/>
<path d="M268.373 273.444C262.763 268.104 256.043 264.068 248.693 261.624C248.149 261.458 247.913 262.309 248.457 262.487C255.657 264.86 262.244 268.796 267.747 274.011C268.173 274.401 268.799 273.775 268.373 273.385V273.444Z" fill="#263238"/>
<path d="M308.372 289.85C315.349 289.093 322.402 290.19 328.82 293.03C329.34 293.266 329.79 292.498 329.27 292.273C322.716 289.35 315.508 288.209 308.372 288.963C307.804 289.023 307.804 289.909 308.372 289.85Z" fill="#263238"/>
<path d="M306.705 292.592C314.241 293.552 321.472 296.159 327.887 300.228C328.372 300.535 328.809 299.767 328.336 299.46C321.864 295.326 314.558 292.674 306.942 291.694C306.386 291.623 306.15 292.474 306.705 292.545V292.592Z" fill="#263238"/>
<g opacity="0.5">
<path d="M277.262 248.066C279.426 246.434 282.132 245.69 284.827 245.986C285.938 246.151 286.422 244.449 285.3 244.272C282.141 243.847 278.941 244.656 276.364 246.53C275.453 247.192 276.364 248.728 277.262 248.066Z" fill="black"/>
</g>
<g opacity="0.5">
<path d="M316.09 261.529C317.949 263.505 318.973 266.122 318.951 268.834C318.951 270.016 320.688 270.016 320.724 268.834C320.74 265.653 319.529 262.588 317.343 260.276C316.563 259.437 315.31 260.69 316.09 261.529Z" fill="black"/>
</g>
<path opacity="0.3" d="M366.988 257.747C366.988 272.745 361.505 287.225 351.571 298.461C341.637 309.697 327.938 316.913 313.053 318.75C310.559 319.059 308.048 319.213 305.535 319.211C293.379 319.211 281.495 315.606 271.388 308.852C261.28 302.099 253.402 292.499 248.75 281.268C244.098 270.037 242.881 257.679 245.252 245.756C247.624 233.833 253.478 222.881 262.074 214.285C270.67 205.689 281.621 199.835 293.544 197.464C305.467 195.092 317.825 196.309 329.057 200.962C340.288 205.614 349.887 213.492 356.641 223.599C363.395 233.707 366.999 245.59 366.999 257.747H366.988Z" fill="#7E57C2"/>
<path d="M211.578 255.43C210.539 255.338 209.574 254.852 208.883 254.071C208.721 253.875 208.582 253.661 208.469 253.433C208.363 253.22 208.469 253.433 208.398 253.232C208.358 253.064 208.265 252.914 208.133 252.803C208.001 252.693 207.837 252.627 207.665 252.617C207.508 253.474 207.456 254.348 207.512 255.217C208.584 256.347 210.028 257.052 211.578 257.203C212.76 257.357 212.76 255.584 211.578 255.43Z" fill="#7E57C2"/>
<path d="M215.514 249.686C215.034 248.95 214.747 248.105 214.679 247.23C214.61 246.354 214.764 245.475 215.124 244.674C215.162 244.582 215.182 244.484 215.182 244.384C215.182 244.285 215.162 244.187 215.124 244.095C214.435 244.343 213.766 244.647 213.127 245.005C212.808 246.023 212.749 247.105 212.956 248.152C213.162 249.198 213.627 250.177 214.309 250.998C215.006 251.766 216.306 250.584 215.514 249.686Z" fill="#7E57C2"/>
<g opacity="0.2">
<path d="M211.578 255.43C210.539 255.338 209.574 254.852 208.883 254.071C208.721 253.875 208.582 253.661 208.469 253.433C208.363 253.22 208.469 253.433 208.398 253.232C208.358 253.064 208.265 252.914 208.133 252.803C208.001 252.693 207.837 252.627 207.665 252.617C207.508 253.474 207.456 254.348 207.512 255.217C208.584 256.347 210.028 257.052 211.578 257.203C212.76 257.357 212.76 255.584 211.578 255.43Z" fill="black"/>
<path d="M215.514 249.686C215.034 248.95 214.747 248.105 214.679 247.23C214.61 246.354 214.764 245.475 215.124 244.674C215.162 244.582 215.182 244.484 215.182 244.384C215.182 244.285 215.162 244.187 215.124 244.095C214.435 244.343 213.766 244.647 213.127 245.005C212.808 246.023 212.749 247.105 212.956 248.152C213.162 249.198 213.627 250.177 214.309 250.998C215.006 251.766 216.306 250.584 215.514 249.686Z" fill="black"/>
</g>
<path d="M222.807 342.378C230.868 341.385 239.686 343.56 247.05 346.657C268.645 355.723 282.19 376.325 290.275 397.483C291.895 401.703 298.75 399.847 297.107 395.603C288.467 372.992 274.307 351.208 251.529 340.948C242.913 337.059 232.381 334.128 222.807 335.31C218.339 335.853 218.28 342.957 222.807 342.402V342.378Z" fill="#7E57C2"/>
<path d="M313.053 318.75C310.559 319.059 308.048 319.213 305.535 319.211C294.061 319.214 282.815 316.005 273.07 309.947C263.325 303.889 255.47 295.224 250.395 284.933C250.005 284.141 249.639 283.325 249.284 282.51C249.158 282.215 248.957 281.958 248.701 281.765C248.445 281.572 248.143 281.45 247.824 281.41C247.506 281.371 247.183 281.415 246.887 281.54C246.592 281.664 246.334 281.864 246.14 282.12C245.57 282.91 245.236 283.846 245.175 284.818C245.114 285.791 245.33 286.761 245.797 287.616C252.01 299.777 261.763 309.771 273.769 316.278C285.775 322.786 299.472 325.502 313.053 324.069C313.99 323.991 314.891 323.668 315.664 323.133C316.438 322.598 317.058 321.869 317.462 321.019C317.61 320.715 317.671 320.376 317.639 320.039C317.607 319.702 317.482 319.381 317.28 319.11C317.077 318.839 316.804 318.629 316.49 318.503C316.176 318.377 315.833 318.34 315.5 318.395C314.684 318.537 313.88 318.655 313.053 318.75Z" fill="#7E57C2"/>
<path opacity="0.5" d="M326.622 207.949C323.458 206.389 320.143 205.158 316.728 204.273C316.46 204.202 316.179 204.196 315.908 204.257C315.638 204.317 315.385 204.442 315.173 204.62C314.961 204.799 314.795 205.026 314.689 205.283C314.583 205.539 314.541 205.817 314.565 206.093L314.825 208.978C314.858 209.358 315.018 209.717 315.28 209.996C315.542 210.275 315.889 210.457 316.267 210.514C319.223 210.993 322.133 211.721 324.967 212.689C325.202 212.776 325.453 212.81 325.702 212.79C325.951 212.77 326.193 212.695 326.411 212.571C326.628 212.447 326.816 212.277 326.96 212.073C327.105 211.868 327.203 211.635 327.248 211.389L327.544 209.805C327.616 209.437 327.564 209.056 327.398 208.721C327.231 208.385 326.958 208.114 326.622 207.949Z" fill="white"/>
<path opacity="0.5" d="M305.015 206.85L304.4 205.207C304.168 204.613 303.753 204.109 303.216 203.767C302.678 203.425 302.045 203.263 301.409 203.304C291.977 203.924 282.883 207.058 275.071 212.38C267.259 217.702 261.014 225.018 256.984 233.568C252.954 242.119 251.287 251.592 252.154 261.005C253.022 270.417 256.394 279.426 261.919 287.096L261.812 286.895C258.084 279.325 256.216 270.974 256.361 262.537C256.507 254.1 258.663 245.819 262.65 238.382C266.637 230.945 272.341 224.566 279.287 219.775C286.234 214.983 294.223 211.918 302.591 210.833C303.036 210.777 303.462 210.622 303.838 210.378C304.215 210.134 304.531 209.809 304.764 209.426C304.997 209.043 305.14 208.613 305.184 208.167C305.227 207.721 305.169 207.27 305.015 206.85Z" fill="white"/>
<path d="M244.555 361.266C244.555 361.266 257.782 314.719 233.917 322.414C207.618 330.901 227.877 345.924 217.972 371.857C211.176 389.587 222.606 388.807 230.466 386.538C230.466 386.538 208.764 426.726 243.468 415.733C278.172 404.74 280.902 379.363 272.628 365.64C264.354 351.917 244.555 361.266 244.555 361.266Z" fill="#7E57C2"/>
<path opacity="0.5" d="M244.555 361.266C244.555 361.266 257.782 314.719 233.917 322.414C207.618 330.901 227.877 345.924 217.972 371.857C211.176 389.587 222.606 388.807 230.466 386.538C230.466 386.538 208.764 426.726 243.468 415.733C278.172 404.74 280.902 379.363 272.628 365.64C264.354 351.917 244.555 361.266 244.555 361.266Z" fill="white"/>
<path d="M228.527 324.589C210.797 333.383 227.133 348.004 218.019 371.869C216.687 374.907 215.991 378.185 215.975 381.502C216.235 382.152 224.379 401.596 238.184 359.422C251.766 318.052 230.088 324.104 228.527 324.589Z" fill="#7E57C2"/>
<path opacity="0.2" d="M228.527 324.589C210.797 333.383 227.133 348.004 218.019 371.869C216.687 374.907 215.991 378.185 215.975 381.502C216.235 382.152 224.379 401.596 238.184 359.422C251.766 318.052 230.088 324.104 228.527 324.589Z" fill="white"/>
<g opacity="0.5">
<path d="M223.398 335.688L237.334 330.546C238.397 330.156 237.936 328.442 236.861 328.844L222.925 333.974C221.873 334.364 222.322 336.078 223.398 335.688Z" fill="white"/>
<path d="M223.398 344.056L237.334 338.915C238.397 338.525 237.936 336.811 236.861 337.213L222.925 342.343C221.873 342.733 222.322 344.458 223.398 344.056Z" fill="white"/>
<path d="M223.777 352.449L237.712 347.307C238.776 346.917 238.315 345.203 237.24 345.605L223.316 350.735C222.252 351.137 222.713 352.851 223.777 352.449Z" fill="white"/>
<path d="M223.882 361.692L235.442 357.437C236.506 357.035 236.045 355.321 234.97 355.723L223.41 359.978C222.346 360.38 222.807 362.094 223.882 361.692Z" fill="white"/>
<path d="M221.53 371.231L231.613 367.519C232.676 367.117 232.215 365.403 231.14 365.805L221.034 369.529C219.97 369.919 220.431 371.633 221.506 371.231H221.53Z" fill="white"/>
<path d="M218.741 379.836L228.823 376.112C229.887 375.722 229.426 374.008 228.35 374.399L218.268 378.122C217.204 378.512 217.665 380.226 218.741 379.836Z" fill="white"/>
</g>
<path d="M244.556 361.266C244.556 361.266 264.366 351.905 272.64 365.64C280.914 379.375 278.16 404.705 243.48 415.733C228.043 420.65 223.788 415.39 223.812 408.062C223.055 416.702 226.873 423.593 244.39 418.014C280.808 406.431 283.704 379.812 275.016 365.392C266.328 350.971 245.525 360.805 245.525 360.805L244.556 361.266Z" fill="#7E57C2"/>
<path opacity="0.2" d="M244.556 361.266C244.556 361.266 264.366 351.905 272.64 365.64C280.914 379.375 278.16 404.705 243.48 415.733C228.043 420.65 223.788 415.39 223.812 408.062C223.055 416.702 226.873 423.593 244.39 418.014C280.808 406.431 283.704 379.812 275.016 365.392C266.328 350.971 245.525 360.805 245.525 360.805L244.556 361.266Z" fill="white"/>
<path d="M244.532 358.926C241.587 368.796 236.373 377.839 229.308 385.332C227.735 386.987 230.241 389.493 231.813 387.838C239.322 379.928 244.869 370.365 248.007 359.919C248.645 357.72 245.217 356.787 244.579 358.973L244.532 358.926Z" fill="#7E57C2"/>
<g opacity="0.2">
<path d="M244.532 358.926C241.587 368.796 236.373 377.839 229.308 385.332C227.735 386.987 230.241 389.493 231.813 387.838C239.322 379.928 244.869 370.365 248.007 359.919C248.645 357.72 245.217 356.787 244.579 358.973L244.532 358.926Z" fill="white"/>
</g>
<path d="M308.089 330.747C300.039 327.709 295.879 325.558 284.744 310.121C270.915 290.949 244.012 321.941 249.154 330.334C254.296 338.726 270.761 342.721 272.794 325.475L274.165 325.558C274.165 325.558 278.893 338.383 282.25 345.345C288.905 359.115 306.245 364.552 313.798 352.922C317.036 347.874 318.644 334.742 308.089 330.747Z" fill="#7E57C2"/>
<path d="M308.089 330.747C300.039 327.709 295.879 325.558 284.744 310.121C270.915 290.949 244.012 321.941 249.154 330.334C254.296 338.726 270.761 342.721 272.794 325.475L274.165 325.558C274.165 325.558 278.893 338.383 282.25 345.345C288.905 359.115 306.245 364.552 313.798 352.922C317.036 347.874 318.644 334.742 308.089 330.747Z" fill="#7E57C2"/>
<path opacity="0.5" d="M308.089 330.747C300.039 327.709 295.879 325.558 284.744 310.121C270.915 290.949 244.012 321.941 249.154 330.334C254.296 338.726 270.761 342.721 272.794 325.475L274.165 325.558C274.165 325.558 278.893 338.383 282.25 345.345C288.905 359.115 306.245 364.552 313.798 352.922C317.036 347.874 318.644 334.742 308.089 330.747Z" fill="white"/>
<path d="M308.088 330.747C319.708 335.121 315.358 348.891 311.552 353.477C306.055 360.12 300.677 360.569 295.819 357.874C300.819 362.602 306.989 363.205 314.365 355.297C319.578 349.706 322.024 331.397 308.088 330.747Z" fill="#7E57C2"/>
<path opacity="0.2" d="M308.088 330.747C319.708 335.121 315.358 348.891 311.552 353.477C306.055 360.12 300.677 360.569 295.819 357.874C300.819 362.602 306.989 363.205 314.365 355.297C319.578 349.706 322.024 331.397 308.088 330.747Z" fill="white"/>
<path d="M269.685 305.133C271.507 308.068 272.682 311.356 273.132 314.78C273.583 318.205 273.298 321.685 272.298 324.991C271.837 326.622 274.272 327.686 274.744 326.055C276.919 318.561 276.21 310.145 271.801 303.526C270.844 302.107 268.728 303.715 269.685 305.133Z" fill="#7E57C2"/>
<g opacity="0.2">
<path d="M269.685 305.133C271.507 308.068 272.682 311.356 273.132 314.78C273.583 318.205 273.298 321.685 272.298 324.991C271.837 326.622 274.272 327.686 274.744 326.055C276.919 318.561 276.21 310.145 271.801 303.526C270.844 302.107 268.728 303.715 269.685 305.133Z" fill="white"/>
</g>
<path d="M253.882 323.868C252.809 325.041 251.987 326.421 251.467 327.923C250.947 329.425 250.739 331.018 250.856 332.603C251.308 333.074 251.79 333.516 252.298 333.927C252.419 333.841 252.514 333.725 252.574 333.589C252.635 333.454 252.658 333.306 252.641 333.159C252.416 330.464 252.995 327.249 255.005 325.275C255.773 324.459 254.698 323.041 253.882 323.868Z" fill="#7E57C2"/>
<path d="M260.773 327.485C259.455 328.582 258.427 329.985 257.778 331.572C257.129 333.159 256.878 334.881 257.049 336.586C257.652 336.807 258.267 336.989 258.893 337.13C258.899 337.091 258.899 337.051 258.893 337.012C258.624 335.515 258.757 333.974 259.278 332.545C259.799 331.116 260.69 329.851 261.86 328.88C262.723 328.147 261.647 326.74 260.773 327.485Z" fill="#7E57C2"/>
<g opacity="0.2">
<path d="M253.882 323.868C252.809 325.041 251.987 326.421 251.467 327.923C250.947 329.425 250.739 331.018 250.856 332.603C251.308 333.074 251.79 333.516 252.298 333.927C252.419 333.841 252.514 333.725 252.574 333.589C252.635 333.454 252.658 333.306 252.641 333.159C252.416 330.464 252.995 327.249 255.005 325.275C255.773 324.459 254.698 323.041 253.882 323.868Z" fill="black"/>
<path d="M260.774 327.485C259.456 328.582 258.428 329.985 257.779 331.572C257.13 333.159 256.879 334.881 257.05 336.586C257.653 336.807 258.268 336.989 258.894 337.13C258.9 337.091 258.9 337.051 258.894 337.012C258.625 335.515 258.758 333.974 259.279 332.545C259.8 331.116 260.691 329.851 261.861 328.88C262.724 328.147 261.648 326.74 260.774 327.485Z" fill="black"/>
</g>
<path d="M301.244 333.927L309.211 337.189C309.599 339.848 309.355 342.56 308.499 345.107C307.642 347.653 306.198 349.962 304.282 351.846C304.282 351.846 300.44 352.13 294.979 346.456C294.979 346.456 300.878 341.421 301.244 333.927Z" fill="white"/>
<path d="M302.143 345.499C301.742 345.299 301.409 344.985 301.187 344.597C300.965 344.208 300.863 343.762 300.895 343.316C300.927 342.869 301.091 342.442 301.367 342.089C301.642 341.736 302.016 341.473 302.441 341.332C302.866 341.192 303.323 341.182 303.755 341.302C304.186 341.423 304.571 341.669 304.862 342.009C305.154 342.349 305.337 342.768 305.389 343.212C305.442 343.657 305.361 344.107 305.157 344.506C304.888 345.037 304.42 345.439 303.855 345.626C303.29 345.812 302.674 345.766 302.143 345.499Z" fill="#7E57C2"/>
<path d="M302.592 345.664L302.297 345.558C301.765 346.397 301.351 346.917 301.209 346.846C301.067 346.775 301.576 345.085 302.557 343.17C303.538 341.255 304.495 339.801 304.731 339.92C304.968 340.038 304.731 340.629 304.33 341.551L304.59 341.728C305.547 339.612 306.055 338.005 305.772 337.863C305.488 337.721 303.857 340.002 302.308 343.04C300.76 346.078 299.803 348.714 300.169 348.95C300.535 349.186 301.41 347.685 302.592 345.664Z" fill="#7E57C2"/>
<path opacity="0.4" d="M302.592 345.664L302.297 345.558C301.765 346.397 301.351 346.917 301.209 346.846C301.067 346.775 301.576 345.085 302.557 343.17C303.538 341.255 304.495 339.801 304.731 339.92C304.968 340.038 304.731 340.629 304.33 341.551L304.59 341.728C305.547 339.612 306.055 338.005 305.772 337.863C305.488 337.721 303.857 340.002 302.308 343.04C300.76 346.078 299.803 348.714 300.169 348.95C300.535 349.186 301.41 347.685 302.592 345.664Z" fill="white"/>
<path opacity="0.3" d="M169.865 289.59C164.201 296.298 159.796 303.974 156.863 312.249C152.951 314.116 146.982 291.481 148.507 280.051C151.004 277.941 153.629 275.987 156.367 274.2H156.438C158.015 273.155 159.865 272.6 161.757 272.605H162.194C164.141 272.652 166.034 273.248 167.657 274.324C169.279 275.4 170.565 276.913 171.367 278.687C172.168 280.461 172.452 282.426 172.187 284.355C171.921 286.284 171.116 288.098 169.865 289.59Z" fill="#7E57C2"/>
<path opacity="0.3" d="M161.095 370.77C160.717 371.023 160.273 371.159 159.818 371.16C159.708 371.172 159.597 371.172 159.487 371.16C143.388 368.938 127.928 357.862 120.398 343.536L120.505 336.007C120.916 335.991 121.325 336.084 121.689 336.274C122.054 336.465 122.363 336.748 122.585 337.095L123.247 338.111C123.506 338.499 123.638 338.957 123.625 339.423C129.89 353.004 144.003 363.784 158.92 366.29C159.57 367.779 160.315 369.28 161.095 370.77Z" fill="#7E57C2"/>
<path opacity="0.3" d="M199.261 404.847C199.123 405.231 198.881 405.57 198.564 405.828C191.541 411.528 182.985 415.016 173.978 415.851C171.025 414.845 168.136 413.661 165.326 412.305C165.554 411.957 165.87 411.676 166.241 411.489C166.613 411.302 167.027 411.217 167.442 411.241C177.214 411.799 186.861 408.829 194.628 402.873C196.212 403.594 197.713 404.244 199.261 404.847Z" fill="#7E57C2"/>
<path d="M226.764 175.044C230.341 150.609 213.433 127.901 188.998 124.323C164.563 120.745 141.855 137.653 138.277 162.088C134.699 186.523 151.607 209.232 176.042 212.81C200.477 216.387 223.186 199.479 226.764 175.044Z" fill="#7E57C2"/>
<path opacity="0.6" d="M226.764 175.044C230.341 150.609 213.433 127.901 188.998 124.323C164.563 120.745 141.855 137.653 138.277 162.088C134.699 186.523 151.607 209.232 176.042 212.81C200.477 216.387 223.186 199.479 226.764 175.044Z" fill="white"/>
<path opacity="0.2" d="M207.677 131.592C206.59 137.502 202.405 142.939 200.112 149.322C197.264 157.253 203.954 162.324 197.358 175.397C190.763 188.47 182.985 187.572 178.612 193.848C175.586 198.174 169.557 205.893 166.153 210.219C173.523 213.102 181.525 213.979 189.344 212.76C194.249 206.98 203.528 198.576 201.649 197.559C198.93 196.058 192.358 205.148 189.344 203.564C186.33 201.98 191.708 198.28 203.883 189.486C216.057 180.692 215.218 164.298 216.105 155.717C216.511 151.77 218.005 148.014 220.419 144.866C217.145 139.6 212.804 135.079 207.677 131.592Z" fill="#7E57C2"/>
<path opacity="0.2" d="M207.677 131.592C206.59 137.502 202.405 142.939 200.112 149.322C197.264 157.253 203.954 162.324 197.358 175.397C190.763 188.47 182.985 187.572 178.612 193.848C175.586 198.174 169.557 205.893 166.153 210.219C173.523 213.102 181.525 213.979 189.344 212.76C194.249 206.98 203.528 198.576 201.649 197.559C198.93 196.058 192.358 205.148 189.344 203.564C186.33 201.98 191.708 198.28 203.883 189.486C216.057 180.692 215.218 164.298 216.105 155.717C216.511 151.77 218.005 148.014 220.419 144.866C217.145 139.6 212.804 135.079 207.677 131.592Z" fill="black"/>
<path opacity="0.2" d="M156.497 161.934C158.14 162.241 159.038 164.747 158.507 167.537C157.975 170.326 156.213 172.265 154.582 172.005C152.951 171.745 152.041 169.18 152.573 166.402C153.105 163.624 154.842 161.662 156.497 161.934Z" fill="black"/>
<path d="M185.668 123.968C179.404 140.575 170.302 135.788 165.125 148.223C159.723 161.047 171.957 161.071 161.579 177.359C154.369 188.694 149.215 193.517 146.745 195.408C149.214 198.712 152.134 201.652 155.421 204.143C157.69 202.571 161.957 198.895 167.241 190.893C175.208 178.896 178.257 184.888 185.692 173.979C193.127 163.069 184.427 154.96 189.581 144.429C192.512 138.424 195.952 132.029 197.725 126.592C193.846 125.167 189.789 124.284 185.668 123.968ZM180.456 160.669C179.687 164.723 177.134 167.631 174.747 167.182C172.359 166.733 171.059 163.081 171.827 159.026C172.595 154.972 175.16 152.076 177.548 152.525C179.936 152.974 181.236 156.627 180.456 160.669Z" fill="#7E57C2"/>
<path d="M213.28 187.099C214.663 188.033 214.462 190.645 212.914 193.009C211.365 195.373 208.93 196.555 207.547 195.574C206.164 194.593 206.365 192.028 207.914 189.664C209.462 187.3 211.897 186.165 213.28 187.099Z" fill="#7E57C2"/>
<g opacity="0.3">
<path d="M185.668 123.968C179.404 140.575 170.302 135.788 165.125 148.223C159.723 161.047 171.957 161.071 161.579 177.359C154.369 188.694 149.215 193.517 146.745 195.408C149.214 198.712 152.134 201.652 155.421 204.143C157.69 202.571 161.957 198.895 167.241 190.893C175.208 178.896 178.257 184.888 185.692 173.979C193.127 163.069 184.427 154.96 189.581 144.429C192.512 138.424 195.952 132.029 197.725 126.592C193.846 125.167 189.789 124.284 185.668 123.968ZM180.456 160.669C179.687 164.723 177.134 167.631 174.747 167.182C172.359 166.733 171.059 163.081 171.827 159.026C172.595 154.972 175.16 152.076 177.548 152.525C179.936 152.974 181.236 156.627 180.456 160.669Z" fill="white"/>
<path d="M213.28 187.099C214.663 188.033 214.462 190.645 212.914 193.009C211.365 195.373 208.93 196.555 207.547 195.574C206.164 194.593 206.365 192.028 207.914 189.664C209.462 187.3 211.897 186.165 213.28 187.099Z" fill="white"/>
</g>
<path d="M219.202 143.022C219.816 143.92 220.384 144.831 220.987 145.788C221.235 146.202 221.448 146.627 221.672 147.041C226.566 145.386 229.733 144.972 230.431 146.143C232.381 149.452 213.694 164.144 188.683 178.967C163.671 193.789 141.84 203.127 139.842 199.817C139.145 198.635 141.024 196.082 144.83 192.583C144.582 192.181 144.299 191.791 144.05 191.401C143.495 190.444 142.986 189.475 142.49 188.505C122.065 202.926 109.571 214.509 111.675 218.055C114.89 223.469 150.681 208.186 191.626 183.919C232.57 159.653 263.16 135.587 259.957 130.174C257.841 126.64 241.672 132.018 219.202 143.022Z" fill="#7E57C2"/>
</svg>
