<svg width="540" height="407" viewBox="0 0 540 407" fill="none" xmlns="http://www.w3.org/2000/svg">
<g clip-path="url(#clip0_210_782)">
<path opacity="0.48" d="M507.59 15.0723H75.9972C69.9452 15.0723 65.0391 19.9785 65.0391 26.0306V294.601C65.0391 300.653 69.9452 305.559 75.9972 305.559H507.59C513.642 305.559 518.548 300.653 518.548 294.601V26.0306C518.548 19.9785 513.642 15.0723 507.59 15.0723Z" fill="#8257E6"/>
<path opacity="0.18" d="M509.573 326.766C509.243 336.279 507.063 345.964 501.737 353.849C495.028 363.779 484.131 369.925 473.577 375.705L443.653 392.173C430.54 399.396 416.717 406.792 401.767 407C391.188 407.159 380.953 403.67 370.778 400.743C323.26 387.03 273.207 385.108 224.085 388.573C198.924 390.348 173.886 393.47 148.958 397.229C129.013 400.192 105.076 410.049 87.0899 398.38C67.4999 385.647 55.4765 365.028 44.4081 345.009C34.7723 327.635 25.0017 309.832 21.8184 290.23C16.9209 259.938 28.6504 228.827 47.0038 204.216C52.5233 196.866 58.5497 189.911 65.0389 183.402V294.613C65.0388 297.525 66.1914 300.319 68.2447 302.383C70.298 304.448 73.0851 305.616 75.997 305.633H507.578C509.114 312.567 509.784 319.666 509.573 326.766Z" fill="#8257E6"/>
<path opacity="0.18" d="M348.323 15.0845H232.926C237.269 11.782 241.987 9.00381 246.982 6.8076C256.103 2.82833 266.045 1.05297 275.963 0.342818C300.915 -1.45704 325.942 4.05272 348.323 15.0845Z" fill="#8257E6"/>
<path d="M242.733 268.999C243.858 270.49 245.209 271.795 246.737 272.868C249.009 274.094 251.51 274.836 254.083 275.047L293.165 280.937C293.554 280.963 293.929 281.09 294.255 281.304C294.472 281.539 294.636 281.819 294.735 282.123C294.834 282.427 294.867 282.749 294.83 283.067C295.012 290.385 294.024 297.684 291.904 304.69C291.793 305.263 291.516 305.791 291.108 306.208C290.581 306.565 289.958 306.753 289.321 306.747C276.171 307.861 262.96 307.506 249.773 307.151C247.556 307.182 245.344 306.94 243.186 306.429C239.513 305.4 236.513 302.89 233.746 300.307C227.808 294.785 203.774 272.586 202.317 269.574C200.384 265.26 198.828 260.786 197.664 256.204C196.44 251.796 205.39 251.245 205.206 246.666C205.077 243.5 205.457 240.333 206.333 237.287C206.984 234.571 208.335 232.072 210.251 230.039C211.597 228.814 209.516 220.513 211.377 220.415C213.532 227.761 223.278 242.454 227.514 248.747C232.223 255.764 237.303 262.524 242.733 268.999Z" fill="#8257E6"/>
<path d="M242.733 268.999C243.858 270.49 245.209 271.795 246.737 272.868C249.009 274.094 251.51 274.836 254.083 275.047L293.165 280.937C293.554 280.963 293.929 281.09 294.255 281.304C294.472 281.539 294.636 281.819 294.735 282.123C294.834 282.427 294.867 282.749 294.83 283.067C295.012 290.385 294.024 297.684 291.904 304.69C291.793 305.263 291.516 305.791 291.108 306.208C290.581 306.565 289.958 306.753 289.321 306.747C276.171 307.861 262.96 307.506 249.773 307.151C247.556 307.182 245.344 306.94 243.186 306.429C239.513 305.4 236.513 302.89 233.746 300.307C227.808 294.785 203.774 272.586 202.317 269.574C200.384 265.26 198.828 260.786 197.664 256.204C196.44 251.796 205.39 251.245 205.206 246.666C205.077 243.5 205.457 240.333 206.333 237.287C206.984 234.571 208.335 232.072 210.251 230.039C211.597 228.814 209.516 220.513 211.377 220.415C213.532 227.761 223.278 242.454 227.514 248.747C232.223 255.764 237.303 262.524 242.733 268.999Z" fill="url(#paint0_linear_210_782)"/>
<path d="M143.841 206.971C141.209 209.317 138.753 211.855 136.494 214.562C131.083 221.211 127.483 229.12 124.128 237.005C115.203 257.992 107.428 280.435 109.742 303.123C109.786 304.488 110.155 305.823 110.819 307.016C111.873 308.367 113.353 309.321 115.019 309.722C119.316 311.093 123.908 311.155 128.487 311.191C146.13 311.35 163.798 311.51 181.429 310.653C184.159 310.518 187.049 310.31 189.314 308.767C190.969 307.5 192.288 305.848 193.159 303.955C197.897 295.042 199.28 284.732 202.954 275.353C207.851 263.109 221.319 251.98 218.479 239.075C206.333 184.283 149.399 201.914 143.841 206.971Z" fill="#8257E6"/>
<path d="M143.841 206.971C141.209 209.317 138.753 211.855 136.494 214.562C131.083 221.211 127.483 229.12 124.128 237.005C115.203 257.992 107.428 280.435 109.742 303.123C109.786 304.488 110.155 305.823 110.819 307.016C111.873 308.367 113.353 309.321 115.019 309.722C119.316 311.093 123.908 311.155 128.487 311.191C146.13 311.35 163.798 311.51 181.429 310.653C184.159 310.518 187.049 310.31 189.314 308.767C190.969 307.5 192.288 305.848 193.159 303.955C197.897 295.042 199.28 284.732 202.954 275.353C207.851 263.109 221.319 251.98 218.479 239.075C206.333 184.283 149.399 201.914 143.841 206.971Z" fill="url(#paint1_linear_210_782)"/>
<path d="M223.571 161.583C221.502 171.635 219.335 181.957 213.776 190.613C211.75 194.109 208.819 196.993 205.291 198.964C201.704 200.763 197.149 201.008 193.795 198.804C192.117 197.715 190.281 196.001 188.456 196.809C187.134 197.409 186.705 199.049 186.522 200.482C186.062 204.001 186.112 207.568 186.669 211.073C186.896 212.06 186.954 213.078 186.84 214.085C186.603 215.016 186.101 215.859 185.395 216.511C184.688 217.163 183.808 217.596 182.861 217.758C180.967 218.034 179.033 217.731 177.314 216.889C174.641 215.693 172.301 213.86 170.499 211.55C168.698 209.241 167.49 206.525 166.981 203.641C166.724 201.692 166.601 199.729 166.613 197.764C166.381 189.046 164.997 180.365 165.279 171.66C165.56 162.954 167.728 153.894 173.641 147.466C177.057 143.965 181.114 141.155 185.591 139.189C192.264 136.005 199.708 133.765 207.006 134.928C209.909 135.387 212.679 136.469 215.125 138.101C217.57 139.733 219.633 141.875 221.172 144.38C224.992 150.245 225.004 154.616 223.571 161.583Z" fill="#FFDAD2"/>
<path d="M241.803 139.434C242.3 135.348 241.541 131.208 239.628 127.564C237.714 123.92 234.736 120.945 231.09 119.035C227.845 117.419 224.233 116.734 220.731 115.803C212.528 113.599 204.655 109.95 196.244 109.167C187.832 108.383 178.16 111.334 174.413 118.962C173.728 120.358 173.054 122.047 171.548 122.415C170.725 122.503 169.893 122.428 169.099 122.194C163.48 121.203 158.423 126.002 155.888 131.108C151.799 139.373 151.591 149.009 152.485 158.179C153.305 166.664 155.472 175.835 162.28 181.002C162.953 181.516 163.945 181.981 164.594 181.43C164.891 181.12 165.076 180.719 165.12 180.292C165.805 177.075 166.06 173.781 165.879 170.497C165.745 168.048 165.353 165.452 165.99 163.04C166.626 160.628 168.671 158.338 171.169 158.412C173.483 158.412 175.344 160.567 175.919 162.82C176.329 165.113 176.242 167.468 175.662 169.725C176.029 170.644 177.315 169.542 177.535 168.587C179.225 160.897 179.605 152.29 184.943 146.547C186.029 147.672 186.82 149.047 187.245 150.551C188.043 149.725 189.057 149.139 190.172 148.862C191.288 148.585 192.458 148.627 193.55 148.984C195.1 149.658 196.524 150.59 197.762 151.739C210.765 161.889 239.073 158.877 241.803 139.434Z" fill="#3F3D56"/>
<path d="M147.587 219.509C143.473 222.496 141.465 227.749 141.343 232.818C141.22 237.887 146.583 270.052 151.64 279.186C155.558 286.287 163.724 304.825 176.127 309.943C179.801 311.461 234.102 310.824 259.299 308.094C259.14 302.131 258.846 296.168 258.455 290.205C258.491 289.419 258.253 288.644 257.781 288.014C257.144 287.352 256.238 283.03 255.332 283.03C240.64 283.092 225.825 287.585 211.132 287.928C208.999 288.066 206.856 287.938 204.753 287.548C203.032 287.119 201.383 286.443 199.856 285.54C188.518 279.125 182.249 266.526 177.817 254.269C174.426 244.817 171.695 235.034 166.798 226.206C165.059 223.06 163.504 219.999 160.076 218.615C156.048 216.987 151.322 216.803 147.587 219.509Z" fill="#8257E6"/>
<path d="M147.587 219.509C143.473 222.496 141.465 227.749 141.343 232.818C141.22 237.887 146.583 270.052 151.64 279.186C155.558 286.287 163.724 304.825 176.127 309.943C179.801 311.461 234.102 310.824 259.299 308.094C259.14 302.131 258.846 296.168 258.455 290.205C258.491 289.419 258.253 288.644 257.781 288.014C257.144 287.352 256.238 283.03 255.332 283.03C240.64 283.092 225.825 287.585 211.132 287.928C208.999 288.066 206.856 287.938 204.753 287.548C203.032 287.119 201.383 286.443 199.856 285.54C188.518 279.125 182.249 266.526 177.817 254.269C174.426 244.817 171.695 235.034 166.798 226.206C165.059 223.06 163.504 219.999 160.076 218.615C156.048 216.987 151.322 216.803 147.587 219.509Z" fill="url(#paint2_linear_210_782)"/>
<path d="M257.144 281.879C264.772 281.157 273.245 282.859 278.081 288.797C278.59 289.339 278.923 290.022 279.036 290.756C279.031 291.418 278.826 292.062 278.448 292.605C275.595 297.343 269.4 298.47 264.197 300.343C261.49 301.313 258.905 302.595 256.495 304.163C255.139 305.239 253.57 306.016 251.892 306.441C248.218 306.992 245.17 303.71 243.505 300.429C241.595 296.756 238.607 289.214 242.28 285.736C245.28 282.981 253.373 282.222 257.144 281.879Z" fill="#FFDAD2"/>
<path d="M320.309 279.994C321.667 280.766 322.834 281.833 323.725 283.116C324.16 283.765 324.418 284.517 324.474 285.296C324.53 286.076 324.382 286.856 324.044 287.561C323.466 288.428 322.678 289.136 321.754 289.618C314.983 293.646 306.682 294.368 299.825 298.188C298.419 299.211 296.806 299.913 295.099 300.245C294.096 300.267 293.102 300.058 292.193 299.633C291.284 299.209 290.486 298.58 289.859 297.797C288.61 296.238 287.652 294.467 287.031 292.568C279.011 271.509 308.776 272.648 320.309 279.994Z" fill="#FFDAD2"/>
<path d="M126.282 270.591H158.006V296.646C158.006 299.081 157.038 301.417 155.316 303.139C153.594 304.861 151.258 305.829 148.823 305.829H135.465C133.03 305.829 130.694 304.861 128.972 303.139C127.25 301.417 126.282 299.081 126.282 296.646V270.591Z" fill="white"/>
<path d="M155.863 276.908H165.475C167.504 276.908 169.451 277.715 170.886 279.15C172.321 280.585 173.127 282.531 173.127 284.561V287.732C173.127 289.762 172.321 291.708 170.886 293.143C169.451 294.578 167.504 295.385 165.475 295.385H155.863V276.908Z" stroke="white" stroke-width="3.03781" stroke-miterlimit="10"/>
<path d="M512.488 305.265H82.7558C78.9961 305.265 75.9482 308.311 75.9482 312.067C75.9482 315.823 78.9961 318.868 82.7558 318.868H512.488C516.247 318.868 519.295 315.823 519.295 312.067C519.295 308.311 516.247 305.265 512.488 305.265Z" fill="#8257E6"/>
<path d="M433.491 319.076H190.587V403.327H433.491V319.076Z" fill="#8257E6"/>
<path d="M192.24 319.076H96.8242V403.327H192.24V319.076Z" fill="#8257E6"/>
<path d="M433.503 319.076H192.19V403.327H433.503V319.076Z" fill="url(#paint3_linear_210_782)"/>
<path d="M192.24 319.076H96.8242V403.327H192.24V319.076Z" fill="url(#paint4_linear_210_782)"/>
<path opacity="0.18" d="M518.536 26.0428V79.6711H65.0391V26.0428C65.039 23.1308 66.1916 20.3372 68.2449 18.2724C70.2982 16.2076 73.0853 15.0394 75.9972 15.0233H507.578C510.49 15.0394 513.277 16.2076 515.33 18.2724C517.383 20.3372 518.536 23.1308 518.536 26.0428Z" fill="#8257E6"/>
<path d="M260.781 305.033H418.04C422.448 305.033 426.022 301.459 426.022 297.05C426.022 292.641 422.448 289.067 418.04 289.067H260.781C256.372 289.067 252.798 292.641 252.798 297.05C252.798 301.459 256.372 305.033 260.781 305.033Z" fill="#8257E6"/>
<path d="M260.781 305.033H418.04C422.448 305.033 426.022 301.459 426.022 297.05C426.022 292.641 422.448 289.067 418.04 289.067H260.781C256.372 289.067 252.798 292.641 252.798 297.05C252.798 301.459 256.372 305.033 260.781 305.033Z" fill="url(#paint5_linear_210_782)"/>
<path d="M315.314 305.057H436.001L467.835 224.333C468.258 223.257 468.411 222.094 468.282 220.946C468.153 219.797 467.746 218.697 467.096 217.742C466.446 216.786 465.572 216.004 464.551 215.463C463.529 214.921 462.391 214.638 461.236 214.636H366.53C361.949 214.644 357.476 216.029 353.69 218.609C349.905 221.189 346.982 224.847 345.299 229.108L315.314 305.057Z" fill="#8257E6"/>
<path d="M321.448 305.143H436.074L466.304 228.459C466.708 227.438 466.855 226.333 466.734 225.241C466.612 224.149 466.225 223.104 465.607 222.196C464.989 221.288 464.158 220.545 463.187 220.032C462.216 219.519 461.134 219.251 460.035 219.252H370.093C365.736 219.25 361.479 220.559 357.876 223.009C354.273 225.459 351.49 228.937 349.891 232.99L321.448 305.143Z" fill="#8257E6"/>
<path d="M321.448 305.143H436.074L466.304 228.459C466.708 227.438 466.855 226.333 466.734 225.241C466.612 224.149 466.225 223.104 465.607 222.196C464.989 221.288 464.158 220.545 463.187 220.032C462.216 219.519 461.134 219.251 460.035 219.252H370.093C365.736 219.25 361.479 220.559 357.876 223.009C354.273 225.459 351.49 228.937 349.891 232.99L321.448 305.143Z" fill="url(#paint6_linear_210_782)"/>
<path opacity="0.51" d="M451.22 189.303H281.521V198.853H451.22V189.303Z" fill="white"/>
<path d="M402.159 172.958H281.521V182.508H402.159V172.958Z" fill="white"/>
<path d="M499.411 172.958H418.651V182.508H499.411V172.958Z" fill="white"/>
<path d="M499.13 112.497H374.966V120.982H499.13V112.497Z" fill="white"/>
<path opacity="0.51" d="M481.793 127.569H348.96V136.054H481.793V127.569Z" fill="white"/>
<path d="M365.489 112.497H283.823V120.982H365.489V112.497Z" fill="white"/>
<path d="M499.13 142.189H319.648V150.674H499.13V142.189Z" fill="white"/>
<path opacity="0.51" d="M310.172 142.189H283.823V150.674H310.172V142.189Z" fill="white"/>
<path opacity="0.51" d="M499.13 157.261H380.659V165.746H499.13V157.261Z" fill="white"/>
<path d="M365.489 157.261H283.823V165.746H365.489V157.261Z" fill="white"/>
<path d="M336.337 127.214H283.823V135.699H336.337V127.214Z" fill="white"/>
<path d="M453.718 83.932H329.554V92.417H453.718V83.932Z" fill="white"/>
<path opacity="0.51" d="M436.38 99.0043H303.548V107.489H436.38V99.0043Z" fill="white"/>
<path d="M320.089 83.932H238.423V92.417H320.089V83.932Z" fill="white"/>
<path d="M452.616 66.3621H328.452V74.8471H452.616V66.3621Z" fill="white"/>
<path d="M318.987 50.4204H237.321V58.9054H318.987V50.4204Z" fill="white"/>
<path d="M318.987 35.8746H237.321V44.3597H318.987V35.8746Z" fill="white"/>
<path d="M290.936 98.6492H238.423V107.134H290.936V98.6492Z" fill="white"/>
</g>
<defs>
<linearGradient id="paint0_linear_210_782" x1="203.81" y1="254.49" x2="265.335" y2="277.936" gradientUnits="userSpaceOnUse">
<stop offset="0.01"/>
<stop offset="0.12" stop-opacity="0.75"/>
<stop offset="1" stop-opacity="0"/>
</linearGradient>
<linearGradient id="paint1_linear_210_782" x1="172.565" y1="322.358" x2="153.892" y2="209.751" gradientUnits="userSpaceOnUse">
<stop offset="0.01"/>
<stop offset="0.12" stop-opacity="0.75"/>
<stop offset="1" stop-opacity="0"/>
</linearGradient>
<linearGradient id="paint2_linear_210_782" x1="179.225" y1="316.089" x2="209.982" y2="246.874" gradientUnits="userSpaceOnUse">
<stop offset="0.01"/>
<stop offset="0.12" stop-opacity="0.75"/>
<stop offset="1" stop-opacity="0"/>
</linearGradient>
<linearGradient id="paint3_linear_210_782" x1="342.691" y1="260.918" x2="289.968" y2="438.062" gradientUnits="userSpaceOnUse">
<stop offset="0.01"/>
<stop offset="0.12" stop-opacity="0.75"/>
<stop offset="1" stop-opacity="0"/>
</linearGradient>
<linearGradient id="paint4_linear_210_782" x1="125.156" y1="269.317" x2="176.238" y2="511.563" gradientUnits="userSpaceOnUse">
<stop offset="0.01"/>
<stop offset="0.12" stop-opacity="0.75"/>
<stop offset="1" stop-opacity="0"/>
</linearGradient>
<linearGradient id="paint5_linear_210_782" x1="339.079" y1="312.55" x2="339.802" y2="279.223" gradientUnits="userSpaceOnUse">
<stop offset="0.01"/>
<stop offset="0.12" stop-opacity="0.75"/>
<stop offset="1" stop-opacity="0"/>
</linearGradient>
<linearGradient id="paint6_linear_210_782" x1="391.446" y1="333.145" x2="396.392" y2="207.902" gradientUnits="userSpaceOnUse">
<stop offset="0.01"/>
<stop offset="0.12" stop-opacity="0.75"/>
<stop offset="1" stop-opacity="0"/>
</linearGradient>
<clipPath id="clip0_210_782">
<rect width="540" height="407" fill="white"/>
</clipPath>
</defs>
</svg>
